<svg xmlns="http://www.w3.org/2000/svg" viewBox="0 1.171875 399.755859375 223.828125"><path fill="#ffffff" d="M73.24 1.17L73.24 1.17L75.59 1.17Q82.03 2.05 82.03 4.10L82.03 4.10L82.03 4.69Q82.03 6.01 77.93 14.06L77.93 14.06Q79.10 18.75 79.10 24.02L79.10 24.02L79.10 32.23Q79.10 50.39 77.34 70.31L77.34 70.31Q79.10 75.59 79.10 77.34L79.10 77.34L79.10 79.69Q79.10 80.42 77.93 86.13L77.93 86.13Q79.25 86.13 80.27 92.58L80.27 92.58Q79.69 105.76 79.69 108.98L79.69 108.98L80.86 111.33Q80.86 112.50 75.59 116.60L75.59 116.60Q75.59 125.54 76.17 137.11L76.17 137.11Q75.59 158.35 75.59 175.78L75.59 175.78Q76.17 179.88 76.17 180.47L76.17 180.47L75.59 180.47L76.17 181.64Q76.76 201.56 77.93 217.97L77.93 217.97Q76.46 219.14 76.17 219.14L76.17 219.14Q74.27 217.97 72.66 217.97L72.66 217.97L71.48 217.97Q71.48 219.73 69.14 220.90L69.14 220.90L66.80 220.90Q64.45 220.17 63.87 211.52L63.87 211.52L63.87 201.56L63.28 198.63Q63.87 198.63 63.87 198.05L63.87 198.05L63.28 198.05Q62.26 198.63 60.94 198.63L60.94 198.63Q53.91 190.72 53.91 166.99L53.91 166.99L53.91 152.34Q53.91 150.29 52.15 141.21L52.15 141.21Q53.32 124.22 53.32 120.12L53.32 120.12Q53.32 115.43 33.40 115.43L33.40 115.43Q30.76 116.60 30.47 117.77L30.47 117.77L30.47 123.05Q29.30 135.94 29.30 136.52L29.30 136.52Q32.23 149.12 32.23 188.09L32.23 188.09Q29.30 216.50 28.13 223.24L28.13 223.24Q26.81 225 26.37 225L26.37 225L25.78 225Q23.44 223.97 17.58 209.77L17.58 209.77L16.99 209.77Q16.99 214.16 12.30 219.14L12.30 219.14L11.72 219.14Q9.96 219.14 9.38 208.59L9.38 208.59Q5.86 206.54 5.86 205.66L5.86 205.66L5.86 197.46Q5.86 178.13 6.45 168.16L6.45 168.16Q5.86 158.79 5.86 139.45L5.86 139.45Q4.69 120.70 3.52 120.70L3.52 120.70L6.45 111.33Q0 104.30 0 93.75L0 93.75Q3.37 90.38 7.03 89.06L7.03 89.06Q5.27 83.79 5.27 76.17L5.27 76.17L5.27 69.14Q5.27 66.50 7.62 63.87L7.62 63.87L6.45 61.52Q6.45 60.21 10.55 52.73L10.55 52.73L9.96 52.73Q4.69 50.83 4.69 46.88L4.69 46.88L4.69 46.29L7.03 42.19Q1.76 26.37 1.76 16.41L1.76 16.41L1.76 14.06Q1.76 12.89 8.79 11.13L8.79 11.13L9.38 8.20L8.20 4.10L8.20 2.93Q8.35 1.76 9.38 1.76L9.38 1.76L21.68 1.76Q31.05 6.30 31.05 7.03L31.05 7.03Q29.88 15.38 29.88 18.75L29.88 18.75L29.88 25.20Q29.88 39.40 32.23 53.91L32.23 53.91Q32.81 81.88 32.81 86.72L32.81 86.72Q32.23 86.72 32.23 87.30L32.23 87.30L38.67 90.82Q41.60 88.48 42.19 88.48L42.19 88.48Q46.14 89.06 48.63 89.06L48.63 89.06L50.39 89.06L50.39 80.27Q50.39 68.41 49.80 60.94L49.80 60.94L51.56 25.78Q49.22 21.09 49.22 18.16L49.22 18.16L49.22 17.58Q49.22 13.18 59.18 11.72L59.18 11.72Q65.77 1.17 73.24 1.17ZM106.49 57.28L130.52 39.70L131.10 39.70Q134.62 39.70 149.27 53.17L149.27 53.17Q162.74 64.45 165.09 69.58L165.09 69.58L165.67 71.92L161.57 83.64Q163.92 86.13 164.50 88.92L164.50 88.92Q162.16 98.14 162.16 101.22L162.16 101.22L162.16 105.91Q169.78 106.35 169.78 108.25L169.78 108.25L169.78 113.53Q169.78 115.28 162.16 115.87L162.16 115.87L162.16 129.93Q162.16 145.61 156.30 149.27L156.30 149.27Q155.42 149.27 146.92 159.23L146.92 159.23Q128.47 179.15 121.73 179.15L121.73 179.15Q118.07 177.83 110.60 168.60L110.60 168.60Q93.02 155.71 93.02 148.10L93.02 148.10Q93.02 143.26 94.19 119.38L94.19 119.38Q89.79 117.77 89.50 116.46L89.50 116.46L89.50 108.84Q89.50 107.67 93.60 106.49L93.60 106.49Q92.43 99.46 92.43 95.36L92.43 95.36Q92.43 65.04 106.49 57.28L106.49 57.28ZM123.49 68.99L123.49 68.99Q121.14 82.03 121.14 94.78L121.14 94.78L121.14 95.95Q121.14 98.88 121.73 104.74L121.73 104.74L123.49 104.74Q124.66 104.74 125.83 71.92L125.83 71.92Q124.80 69.29 123.49 68.99ZM137.55 72.51L137.55 72.51L137.55 73.10Q137.55 79.25 136.96 91.85L136.96 91.85L136.38 91.85Q136.38 92.43 136.96 92.43L136.96 92.43Q136.96 93.02 136.38 94.19L136.38 94.19Q136.38 95.65 137.55 104.15L137.55 104.15L141.06 104.15Q142.68 104.15 143.41 93.60L143.41 93.60Q143.41 76.46 137.55 72.51ZM121.14 118.21L121.14 118.21L121.14 127.00Q121.14 142.82 125.83 142.82L125.83 142.82L125.83 133.45Q125.83 128.47 127.00 121.14L127.00 121.14Q126.42 117.04 125.24 117.04L125.24 117.04L122.31 117.04Q121.14 117.19 121.14 118.21ZM141.06 117.63L138.13 117.04L138.13 122.31Q138.13 128.76 136.38 146.92L136.38 146.92L136.38 147.51L136.96 147.51Q141.06 136.82 141.06 134.03L141.06 134.03L141.06 117.63ZM215.33 28.42L215.33 28.42L217.09 28.42Q228.52 45.12 234.08 50.10L234.08 50.10Q242.72 41.89 254.59 34.28L254.59 34.28Q254.59 33.40 258.11 30.76L258.11 30.76L259.86 30.76Q263.09 34.42 273.93 40.72L273.93 40.72Q274.37 42.33 286.23 51.86L286.23 51.86Q289.75 55.66 289.75 56.54L289.75 56.54Q289.75 61.08 288.57 70.61L288.57 70.61Q288.57 76.03 289.16 78.81L289.16 78.81Q288.57 96.09 288.57 109.28L288.57 109.28L288.57 123.34Q288.57 132.71 289.16 148.54L289.16 148.54Q288.57 150.59 288.57 154.39L288.57 154.39Q293.85 155.13 293.85 156.15L293.85 156.15L293.85 157.32Q289.60 161.72 282.13 176.66L282.13 176.66Q278.61 180.91 276.27 187.79L276.27 187.79Q274.80 188.96 274.51 188.96L274.51 188.96Q272.61 188.96 268.07 173.73L268.07 173.73Q266.60 170.36 255.76 159.67L255.76 159.67L255.76 158.50Q255.76 157.18 261.04 156.15L261.04 156.15Q259.28 139.60 259.28 127.44L259.28 127.44L259.28 117.48Q260.45 86.43 260.45 82.91L260.45 82.91L260.45 74.71Q260.45 69.14 249.90 61.82L249.90 61.82Q248.73 64.16 248.73 68.26L248.73 68.26L248.73 81.74Q248.73 85.84 246.97 91.11L246.97 91.11Q246.97 91.70 247.56 91.70L247.56 91.70Q246.39 96.39 246.39 101.66L246.39 101.66L246.39 156.15L245.80 157.32Q252.83 158.50 252.83 160.25L252.83 160.25Q241.99 169.34 237.60 173.73L237.60 173.73Q230.27 183.54 227.64 189.55L227.64 189.55L226.46 189.55Q225.59 188.67 218.85 171.39L218.85 171.39Q218.26 171.09 213.57 163.77L213.57 163.77L213.57 162.60Q213.87 161.43 214.75 161.43L214.75 161.43L218.85 161.43L221.78 160.84Q220.61 158.64 220.61 156.15L220.61 156.15L220.61 140.33Q219.43 109.28 219.43 105.76L219.43 105.76L219.43 96.39Q219.43 92.29 218.85 83.50L218.85 83.50L219.43 83.50L218.85 82.32L218.85 77.64Q218.85 72.07 208.30 63.57L208.30 63.57Q208.30 65.63 205.96 79.98L205.96 79.98L205.96 85.25Q205.96 85.84 205.37 85.84L205.37 85.84Q205.37 86.43 205.96 86.43L205.96 86.43L202.44 123.34Q203.03 131.25 203.03 134.47L203.03 134.47Q203.03 144.43 201.86 156.15L201.86 156.15Q210.64 157.76 210.64 159.08L210.64 159.08Q210.64 161.72 201.27 169.63L201.27 169.63Q191.31 180.76 191.31 187.21L191.31 187.21L190.14 187.79L188.96 187.79L178.42 167.87Q173.73 160.25 173.73 159.08L173.73 159.08Q175.93 157.32 177.83 157.32L177.83 157.32L180.18 157.32Q179.00 140.19 179.00 121.58L179.00 121.58L179.00 112.79Q180.18 87.60 180.18 85.84L180.18 85.84Q179.00 70.75 179.00 70.02L179.00 70.02Q180.18 51.42 180.18 45.41L180.18 45.41L180.18 40.72Q180.18 38.67 180.76 35.45L180.76 35.45Q180.18 34.42 180.18 32.52L180.18 32.52L181.35 31.93L183.69 31.93Q185.45 32.67 190.14 43.65L190.14 43.65Q193.65 47.75 196.00 47.75L196.00 47.75Q206.69 39.40 215.33 28.42ZM393.31 25.49L393.31 25.49Q395.21 25.49 396.24 35.45L396.24 35.45L396.24 47.17Q396.24 53.76 399.76 88.18L399.76 88.18Q399.17 107.81 399.17 114.55L399.17 114.55L398.58 115.72Q399.17 116.75 399.17 117.48L399.17 117.48Q398.00 147.36 395.07 174.32L395.07 174.32L393.31 175.49L388.04 175.49Q374.85 178.42 342.33 180.76L342.33 180.76Q341.46 181.64 331.79 183.11L331.79 183.11L322.41 183.11Q317.43 183.11 311.87 182.52L311.87 182.52Q309.81 183.11 304.25 183.11L304.25 183.11L301.32 178.42L301.32 175.49Q301.32 172.85 302.49 170.80L302.49 170.80Q301.90 150.73 301.90 145.61L301.90 145.61Q303.08 121.73 303.66 66.50L303.66 66.50L302.49 61.23Q303.08 52.44 303.08 46.58L303.08 46.58L303.08 43.07Q304.54 29.59 306.59 29.59L306.59 29.59Q307.76 29.59 313.62 30.76L313.62 30.76Q320.07 29.00 333.54 28.42L333.54 28.42L337.06 29.00Q344.82 27.25 357.57 26.66L357.57 26.66L377.49 27.83Q387.60 25.49 393.31 25.49ZM313.04 79.39L313.04 79.39Q314.21 94.63 314.21 110.45L314.21 110.45L314.21 118.07Q314.21 120.26 315.97 129.79L315.97 129.79Q315.38 132.86 315.38 135.06L315.38 135.06L315.38 145.02Q325.05 154.69 337.65 169.04L337.65 169.04Q345.26 163.48 365.19 142.68L365.19 142.68Q372.95 139.01 382.76 123.34L382.76 123.34Q390.38 116.89 390.38 116.31L390.38 116.31L388.04 113.96Q385.84 114.55 375.73 128.61L375.73 128.61L356.40 145.61Q353.47 147.66 347.61 149.12L347.61 149.12L347.02 149.12Q331.79 135.64 331.79 131.54L331.79 131.54L331.79 106.35Q331.79 105.47 333.54 104.59L333.54 104.59Q335.89 105.18 335.89 106.93L335.89 106.93L336.47 106.93Q345.26 100.78 354.64 90.53L354.64 90.53Q355.22 90.53 362.26 80.57L362.26 80.57Q363.13 80.57 364.60 79.39L364.60 79.39L366.36 79.39Q368.99 79.39 369.29 93.46L369.29 93.46L370.46 93.46Q370.46 92.29 371.04 92.29L371.04 92.29L370.46 91.11L370.46 85.25Q370.46 77.34 379.83 68.85L379.83 68.85Q378.08 64.89 350.54 41.31L350.54 41.31Q350.54 40.43 348.78 39.55L348.78 39.55Q346.58 42.92 334.72 54.20L334.72 54.20Q334.72 58.45 314.79 73.54L314.79 73.54Q313.62 74.85 313.04 79.39ZM343.51 51.27L343.51 51.27L345.26 51.27Q346.58 51.27 348.19 59.47L348.19 59.47L347.61 62.99L347.61 63.57Q349.37 75.29 358.74 75.29L358.74 75.29L359.91 77.05L359.91 78.22Q359.33 79.39 344.68 83.50L344.68 83.50Q336.91 92.87 336.47 92.87L336.47 92.87L335.30 92.87Q334.13 92.87 334.13 91.70L334.13 91.70Q334.13 86.43 334.72 82.91L334.72 82.91Q334.13 76.32 334.13 67.68L334.13 67.68L334.13 65.33L334.72 64.16Q333.54 64.16 333.54 62.99L333.54 62.99L333.54 61.23Q333.54 60.50 343.51 51.27Z"/></svg>