<svg xmlns="http://www.w3.org/2000/svg" viewBox="0 -9.375 471.97265625 241.69921875"><path fill="#ffffff" d="M56.25 5.57L56.25 5.57Q57.57 5.86 60.35 17.29L60.35 17.29Q72.36 42.77 80.27 49.51L80.27 49.51Q88.48 52.88 88.48 54.20L88.48 54.20L88.48 54.79Q67.97 75 67.97 77.64L67.97 77.64Q67.38 81.59 67.38 84.08L67.38 84.08L67.38 90.53Q67.38 93.46 67.97 99.32L67.97 99.32L66.80 99.90L65.63 99.90Q59.77 91.70 59.77 77.64L59.77 77.64L59.77 71.19Q59.77 66.50 61.52 56.54L61.52 56.54Q47.02 53.61 42.19 48.34L42.19 48.34Q42.19 47.61 39.26 45.41L39.26 45.41L38.67 45.41L38.67 47.17Q38.67 62.11 30.47 71.78L30.47 71.78Q41.16 91.70 58.59 107.52L58.59 107.52Q64.89 111.77 74.41 120.41L74.41 120.41Q78.66 123.49 86.72 125.10L86.72 125.10L87.30 128.03Q87.30 137.11 86.72 173.73L86.72 173.73Q87.60 173.73 88.48 175.49L88.48 175.49Q78.96 182.52 78.52 182.52L78.52 182.52Q43.95 222.22 43.36 231.15L43.36 231.15Q41.89 232.32 41.60 232.32L41.60 232.32Q39.70 232.32 36.91 213.57L36.91 213.57Q33.84 203.91 12.30 176.07L12.30 176.07Q0 164.79 0 162.01L0 162.01Q17.58 146.78 17.58 143.85L17.58 143.85Q22.56 127.88 25.20 123.93L25.20 123.93L26.37 123.93Q30.03 123.93 31.64 145.61L31.64 145.61Q31.64 147.95 29.88 163.18L29.88 163.18Q33.40 177.25 42.19 177.25L42.19 177.25Q42.19 178.56 47.46 179.00L47.46 179.00L48.63 179.00Q62.11 177.54 62.11 173.73L62.11 173.73Q63.87 152.93 65.63 139.75L65.63 139.75Q45.12 127.88 8.20 98.14L8.20 98.14Q6.30 98.14 1.17 93.46L1.17 93.46Q1.76 73.10 1.76 64.16L1.76 64.16L1.76 57.71Q1.76 54.05 14.65 46.00L14.65 46.00Q14.65 44.82 41.02 23.14L41.02 23.14Q54.93 6.15 56.25 5.57ZM108.40-9.38L108.40-9.38Q110.16-9.38 116.02-7.62L116.02-7.62L130.66-9.38L137.70-9.38Q158.50-8.20 161.13-7.62L161.13-7.62L164.65-8.20L175.78-8.20Q176.37-8.20 176.37-7.62L176.37-7.62L177.54-8.20L186.91-8.20Q187.79-8.20 188.67-6.45L188.67-6.45L188.67-4.10Q188.67-2.20 188.09-1.17L188.09-1.17Q189.11-1.17 189.84 43.95L189.84 43.95L189.26 49.22Q189.26 49.51 189.84 56.84L189.84 56.84Q189.84 61.23 189.26 77.34L189.26 77.34Q189.26 81.59 189.84 90.82L189.84 90.82Q189.11 117.19 188.67 124.22L188.67 124.22Q189.26 140.48 189.26 154.10L189.26 154.10L189.26 219.14Q189.26 225 182.81 225L182.81 225Q106.05 223.83 106.05 221.48L106.05 221.48Q103.71 211.52 101.95 150L101.95 150L101.95 142.38Q101.95 115.58 103.13 94.34L103.13 94.34Q99.61 61.23 99.61 56.84L99.61 56.84L99.61 8.20Q97.85 6.30 97.85 5.27L97.85 5.27L100.78-7.62Q100.78-8.94 108.40-9.38ZM134.77 1.76L134.77 1.76L134.77 14.65Q134.77 22.12 135.94 29.88L135.94 29.88Q135.50 38.67 133.59 38.67L133.59 38.67L124.22 38.67Q120.41 38.67 112.50 39.26L112.50 39.26L112.50 58.59Q129.49 58.59 129.49 61.52L129.49 61.52Q133.01 103.86 133.01 140.63L133.01 140.63L133.01 145.90L133.59 152.93L133.01 152.93Q134.77 158.35 134.77 166.41L134.77 166.41Q134.77 168.16 127.15 168.75L127.15 168.75Q127.15 169.34 126.56 169.34L126.56 169.34Q142.97 197.90 142.97 203.32L142.97 203.32L143.55 203.32Q143.55 202.44 152.34 188.67L152.34 188.67L164.65 170.51Q152.93 169.48 152.93 167.58L152.93 167.58Q154.69 159.81 154.69 153.52L154.69 153.52L154.69 150.59Q154.69 141.80 154.10 134.77L154.10 134.77Q155.27 117.77 157.03 59.77L157.03 59.77Q161.13 56.25 173.44 56.25L173.44 56.25L173.44 55.08Q173.44 50.10 172.85 39.26L172.85 39.26Q170.36 38.23 158.20 36.91L158.20 36.91Q155.86 36.91 155.86 1.76L155.86 1.76L144.14 1.76L140.04 0.59Q135.64 1.76 134.77 1.76ZM213.57 57.28L237.60 39.70L238.18 39.70Q241.70 39.70 256.35 53.17L256.35 53.17Q269.82 64.45 272.17 69.58L272.17 69.58L272.75 71.92L268.65 83.64Q271.00 86.13 271.58 88.92L271.58 88.92Q269.24 98.14 269.24 101.22L269.24 101.22L269.24 105.91Q276.86 106.35 276.86 108.25L276.86 108.25L276.86 113.53Q276.86 115.28 269.24 115.87L269.24 115.87L269.24 129.93Q269.24 145.61 263.38 149.27L263.38 149.27Q262.50 149.27 254.00 159.23L254.00 159.23Q235.55 179.15 228.81 179.15L228.81 179.15Q225.15 177.83 217.68 168.60L217.68 168.60Q200.10 155.71 200.10 148.10L200.10 148.10Q200.10 143.26 201.27 119.38L201.27 119.38Q196.88 117.77 196.58 116.46L196.58 116.46L196.58 108.84Q196.58 107.67 200.68 106.49L200.68 106.49Q199.51 99.46 199.51 95.36L199.51 95.36Q199.51 65.04 213.57 57.28L213.57 57.28ZM230.57 68.99L230.57 68.99Q228.22 82.03 228.22 94.78L228.22 94.78L228.22 95.95Q228.22 98.88 228.81 104.74L228.81 104.74L230.57 104.74Q231.74 104.74 232.91 71.92L232.91 71.92Q231.88 69.29 230.57 68.99ZM244.63 72.51L244.63 72.51L244.63 73.10Q244.63 79.25 244.04 91.85L244.04 91.85L243.46 91.85Q243.46 92.43 244.04 92.43L244.04 92.43Q244.04 93.02 243.46 94.19L243.46 94.19Q243.46 95.65 244.63 104.15L244.63 104.15L248.14 104.15Q249.76 104.15 250.49 93.60L250.49 93.60Q250.49 76.46 244.63 72.51ZM228.22 118.21L228.22 118.21L228.22 127.00Q228.22 142.82 232.91 142.82L232.91 142.82L232.91 133.45Q232.91 128.47 234.08 121.14L234.08 121.14Q233.50 117.04 232.32 117.04L232.32 117.04L229.39 117.04Q228.22 117.19 228.22 118.21ZM248.14 117.63L245.21 117.04L245.21 122.31Q245.21 128.76 243.46 146.92L243.46 146.92L243.46 147.51L244.04 147.51Q248.14 136.82 248.14 134.03L248.14 134.03L248.14 117.63ZM352.88 49.22L352.88 49.22Q368.12 52.59 368.12 54.49L368.12 54.49L368.12 59.77Q369.29 69.73 369.29 70.90L369.29 70.90L369.29 79.69Q369.29 89.94 364.60 150.59L364.60 150.59Q364.60 169.34 358.74 191.02L358.74 191.02Q355.66 193.36 312.45 193.95L312.45 193.95L311.28 193.95Q301.61 193.95 281.98 187.50L281.98 187.50Q281.98 186.62 280.81 182.81L280.81 182.81Q280.81 138.87 283.74 96.09L283.74 96.09L283.74 86.72Q283.74 52.73 286.67 52.73L286.67 52.73Q303.22 49.80 310.69 49.80L310.69 49.80L318.31 49.80Q326.95 49.80 337.65 50.98L337.65 50.98Q342.04 49.80 352.88 49.22ZM346.44 60.94L346.44 60.94Q343.95 66.36 326.51 78.52L326.51 78.52L321.24 83.79L320.65 83.79Q319.63 83.79 314.21 71.48L314.21 71.48Q307.76 66.65 307.76 63.28L307.76 63.28L307.18 63.28Q298.10 70.31 293.12 70.31L293.12 70.31Q300.44 97.56 304.83 99.02L304.83 99.02L305.42 100.20Q305.42 105.47 303.08 123.05L303.08 123.05Q305.42 137.40 305.42 148.24L305.42 148.24Q305.42 156.01 301.90 176.95L301.90 176.95Q316.26 181.05 320.07 181.05L320.07 181.05Q320.65 180.03 320.65 179.30L320.65 179.30Q318.90 162.45 318.90 157.03L318.90 157.03Q318.90 124.07 327.10 96.68L327.10 96.68Q333.69 88.62 338.23 84.96L338.23 84.96L339.40 84.96Q340.28 84.96 341.16 86.72L341.16 86.72L338.23 111.91L339.40 112.50L345.85 112.50Q348.93 112.50 355.81 111.91L355.81 111.91L355.81 104.88Q355.81 102.25 357.57 80.27L357.57 80.27Q357.57 64.45 352.29 64.45L352.29 64.45Q349.07 60.94 346.44 60.94ZM465.53 25.49L465.53 25.49Q467.43 25.49 468.46 35.45L468.46 35.45L468.46 47.17Q468.46 53.76 471.97 88.18L471.97 88.18Q471.39 107.81 471.39 114.55L471.39 114.55L470.80 115.72Q471.39 116.75 471.39 117.48L471.39 117.48Q470.21 147.36 467.29 174.32L467.29 174.32L465.53 175.49L460.25 175.49Q447.07 178.42 414.55 180.76L414.55 180.76Q413.67 181.64 404.00 183.11L404.00 183.11L394.63 183.11Q389.65 183.11 384.08 182.52L384.08 182.52Q382.03 183.11 376.46 183.11L376.46 183.11L373.54 178.42L373.54 175.49Q373.54 172.85 374.71 170.80L374.71 170.80Q374.12 150.73 374.12 145.61L374.12 145.61Q375.29 121.73 375.88 66.50L375.88 66.50L374.71 61.23Q375.29 52.44 375.29 46.58L375.29 46.58L375.29 43.07Q376.76 29.59 378.81 29.59L378.81 29.59Q379.98 29.59 385.84 30.76L385.84 30.76Q392.29 29.00 405.76 28.42L405.76 28.42L409.28 29.00Q417.04 27.25 429.79 26.66L429.79 26.66L449.71 27.83Q459.81 25.49 465.53 25.49ZM385.25 79.39L385.25 79.39Q386.43 94.63 386.43 110.45L386.43 110.45L386.43 118.07Q386.43 120.26 388.18 129.79L388.18 129.79Q387.60 132.86 387.60 135.06L387.60 135.06L387.60 145.02Q397.27 154.69 409.86 169.04L409.86 169.04Q417.48 163.48 437.40 142.68L437.40 142.68Q445.17 139.01 454.98 123.34L454.98 123.34Q462.60 116.89 462.60 116.31L462.60 116.31L460.25 113.96Q458.06 114.55 447.95 128.61L447.95 128.61L428.61 145.61Q425.68 147.66 419.82 149.12L419.82 149.12L419.24 149.12Q404.00 135.64 404.00 131.54L404.00 131.54L404.00 106.35Q404.00 105.47 405.76 104.59L405.76 104.59Q408.11 105.18 408.11 106.93L408.11 106.93L408.69 106.93Q417.48 100.78 426.86 90.53L426.86 90.53Q427.44 90.53 434.47 80.57L434.47 80.57Q435.35 80.57 436.82 79.39L436.82 79.39L438.57 79.39Q441.21 79.39 441.50 93.46L441.50 93.46L442.68 93.46Q442.68 92.29 443.26 92.29L443.26 92.29L442.68 91.11L442.68 85.25Q442.68 77.34 452.05 68.85L452.05 68.85Q450.29 64.89 422.75 41.31L422.75 41.31Q422.75 40.43 421.00 39.55L421.00 39.55Q418.80 42.92 406.93 54.20L406.93 54.20Q406.93 58.45 387.01 73.54L387.01 73.54Q385.84 74.85 385.25 79.39ZM415.72 51.27L415.72 51.27L417.48 51.27Q418.80 51.27 420.41 59.47L420.41 59.47L419.82 62.99L419.82 63.57Q421.58 75.29 430.96 75.29L430.96 75.29L432.13 77.05L432.13 78.22Q431.54 79.39 416.89 83.50L416.89 83.50Q409.13 92.87 408.69 92.87L408.69 92.87L407.52 92.87Q406.35 92.87 406.35 91.70L406.35 91.70Q406.35 86.43 406.93 82.91L406.93 82.91Q406.35 76.32 406.35 67.68L406.35 67.68L406.35 65.33L406.93 64.16Q405.76 64.16 405.76 62.99L405.76 62.99L405.76 61.23Q405.76 60.50 415.72 51.27Z"/></svg>