<?xml version="1.0" encoding="utf-8"?>
<!-- Generator: Adobe Illustrator 27.5.0, SVG Export Plug-In . SVG Version: 6.00 Build 0)  -->
<svg version="1.1" id="Layer_1" xmlns="http://www.w3.org/2000/svg" xmlns:xlink="http://www.w3.org/1999/xlink" x="0px" y="0px"
	 viewBox="0 0 293.7 220.9" style="enable-background:new 0 0 293.7 220.9;" xml:space="preserve">
<style type="text/css">
	.st0{fill:#FFFFFF;}
</style>
<path class="st0" d="M22.5,57.5L22.5,57.5h1.1c5,0,10.3,7.2,15.9,21.6l0,0v0.4c0,0.8-1.6,1.4-4.9,1.7l0,0
	c-0.4,6.6-0.7,20.1-1.1,40.5l0,0c0.4,8.8,0.6,14.9,0.6,18.1l0,0c-0.4,7.3-0.6,11.6-0.6,12.9l0,0c0.4,5,0.6,9,0.6,12.1l0,0
	c-1.3,26.7-2.4,40.1-3.3,40.1l0,0c-2.7,0.9-4.3,1.3-4.9,1.3l0,0h-3.3c-2.1,0-6.1-0.6-12.1-1.7l0,0c-1.2,0.6-2.3,0.9-3.3,0.9l0,0
	c-0.7-0.7-1.1-1.2-1.1-1.3l0,0c1.1-3.4,1.6-6.2,1.6-8.2l0,0v-8.2c0-7-0.2-15.2-0.5-24.6l0,0l2.2-11.2l-2.7-33.2v-6.5
	c0.6-21,1.4-31.5,2.2-31.5l0,0C2.9,80.3,0,79.7,0,79l0,0v-1.3c2.7-2.8,7.8-7.1,15.4-12.9l0,0C19.9,59.9,22.2,57.5,22.5,57.5z
	 M64.9,44.1L64.9,44.1h0.5c1.4,0,3,5.9,4.9,17.7l0,0c2.6,6.6,5.1,9.9,7.7,9.9l0,0c1.1,1.4,6,4.6,14.8,9.5l0,0
	c3.9,3.4,8.5,6.8,13.7,9.9l0,0c2.6,6.8,3.8,11.9,3.8,15.1l0,0v3c0,1.7-0.2,4-0.6,6.9l0,0c0.4,0.6,0.6,1,0.6,1.3l0,0
	c-0.4,1.7-0.7,2.6-1.1,2.6l0,0l2.2,7.8v0.9c-1.1,1.3-1.6,2.6-1.6,3.9l0,0c1.1,1.3,1.6,2.2,1.6,2.6l0,0c0.4,7,0.6,10.9,0.6,11.6l0,0
	c0,3.7-5.1,8.6-15.4,14.7l0,0c-2,3-5.7,5.2-11,6.5l0,0c-2.3,1.4-4.7,5.1-7.1,11.2l0,0c-0.5,0-1.1,1.6-1.6,4.7l0,0
	c0.4,2.2,0.5,4.5,0.5,6.9l0,0l-1.1,0.4h-0.5c-2-1.2-4.8-6-8.2-14.2l0,0c-1.1,0-2-2.7-2.7-8.2l0,0c-5.1-2.7-7.7-5-7.7-6.9l0,0
	c-7.3-4.3-11-6.9-11-7.8l0,0l4.9-12.9c-1.1-1.3-2.2-9.2-3.3-23.7l0,0c-0.6,0-1-1.7-1.1-5.2l0,0v-6.9c0-3.4,2.9-6.4,8.8-9.1l0,0
	c0-1.7,2-3.1,6-4.3l0,0c3.2-2.2,5.2-5.6,6-10.4l0,0l-9.9-10.8V70c0-5.7,2-14,6-25l0,0C63.9,44.4,64.3,44.1,64.9,44.1z M79.8,103.2
	l-6-5.6c-1.5,0.9-2.2,1.6-2.2,2.2l0,0c0,3.7,0.2,7.6,0.5,11.6l0,0c-0.4,4-0.5,7.5-0.5,10.4l0,0c0.7,3.2,1.1,5.5,1.1,6.9l0,0
	l-2.2,16.8v1.3c4.4,2.2,6.6,3.8,6.6,4.7l0,0l4.4-5.2l-0.6-0.9v-1.3c-1.1-12.4-1.6-20-1.6-22.9l0,0C79.2,120.2,79.4,114.2,79.8,103.2
	L79.8,103.2z M171.9,43.7L171.9,43.7c4.4,0,6.6,1.6,6.6,4.7l0,0V51c0,5.2-0.5,36.2-1.6,93.2l0,0c0.4,13.7,0.9,24.2,1.6,31.5l0,0
	c-0.8,19.3-1.7,28.9-2.7,28.9l0,0l-1.1,0.4h-3.3l-11,1.3c-13.2-1.1-25.1-1.7-35.7-1.7l0,0c-1.8,0-3.3-30.3-4.4-91l0,0v-6
	c0-3.7,0.2-7.7,0.6-12.1l0,0c-1.1-9.4-1.6-17.3-1.6-23.7l0,0c1.6-16.7,2.8-25,3.8-25l0,0l1.1-0.4h1.1
	C145.3,45.4,160.9,44.5,171.9,43.7z M130.7,64.4L130.7,64.4v1.7c1.1,8.9,2,19.8,2.7,32.8l0,0c-0.7,7-1.1,11.5-1.1,13.4l0,0
	c0,4.3,0.7,17.5,2.2,39.7l0,0v0.4c0,2.7-0.7,8.7-2.2,18.1l0,0c3.1,0.5,8.6,5.8,16.5,16l0,0c1.5,2.7,2.2,4.2,2.2,4.7l0,0h1.1
	c0.8-3.1,4.9-8.3,12.1-15.5l0,0h0.5v-0.9c-1.7,0-6.3-3.2-13.7-9.5l0,0c0-3.7,0.2-8.3,0.6-13.8l0,0l-1.6-34.9
	c0.4-15.9,0.6-26.7,0.6-32.4l0,0c-0.4-6.7-0.6-10.1-0.6-10.3l0,0c0.4-7.3,0.9-13.3,1.6-18.1l0,0C140.8,61.5,133.8,64.4,130.7,64.4z
	 M269.2,59.4L269.2,59.4c1.2,0,2.1,2.4,2.7,7.3l0,0v8.6c0,3.2,1.1,13.3,3.3,30.2l0,0c-0.4,9.6-0.5,16.1-0.5,19.4l0,0l-0.6,0.9
	c0.4,0.5,0.6,0.9,0.6,1.3l0,0c-0.7,14.7-2,28.6-3.9,41.8l0,0l-1.6,0.9h-4.9c-8.2,1.4-22.5,2.7-42.8,3.9l0,0c-0.5,0.4-3.8,1-9.9,1.7
	l0,0h-8.8c-3.1,0-6.4-0.1-9.9-0.4l0,0c-1.3,0.3-3.7,0.4-7.1,0.4l0,0L183,172v-2.2c0-1.3,0.4-2.4,1.1-3.5l0,0
	c-0.4-9.8-0.6-16-0.6-18.5l0,0c0.7-11.7,1.3-31.1,1.6-58.2l0,0l-1.1-3.9c0.4-4.3,0.5-7.9,0.5-10.8l0,0v-2.6c0.9-6.6,2-9.9,3.3-9.9
	l0,0c0.7,0,2.9,0.3,6.6,0.9l0,0c4-0.9,10.2-1.4,18.7-1.7l0,0l3.3,0.4c4.8-0.9,11.3-1.4,19.2-1.7l0,0l18.7,0.9
	C260.7,60,265.6,59.4,269.2,59.4z M194,99.1L194,99.1c0.7,7.5,1.1,15.1,1.1,22.9l0,0v5.6c0,1.1,0.5,4,1.6,8.6l0,0
	c-0.4,1.5-0.5,2.8-0.5,3.9l0,0v7.3c6,4.7,13,10.6,20.9,17.7l0,0c4.8-2.7,13.4-9.2,25.8-19.4l0,0c4.8-1.8,10.3-6.5,16.5-14.2l0,0
	c4.8-3.2,7.1-4.9,7.1-5.2l0,0l-2.2-1.7c-1.4,0.3-5.2,3.9-11.5,10.8l0,0l-18.1,12.5c-1.8,1-4.6,1.9-8.2,2.6l0,0h-0.5
	c-9.5-6.6-14.3-10.9-14.3-12.9l0,0v-18.5c0-0.4,0.5-0.9,1.6-1.3l0,0c1.5,0.3,2.2,0.9,2.2,1.7l0,0h0.6c5.5-3,11.2-7,17-12.1l0,0
	c0.4,0,2.7-2.4,7.1-7.3l0,0c0.5,0,1.3-0.3,2.2-0.9l0,0h1.6c1.6,0,2.6,3.5,2.7,10.4l0,0h1.1c0-0.6,0.2-0.9,0.6-0.9l0,0l-0.6-0.9v-4.3
	c0-3.9,2.9-7.9,8.8-12.1l0,0c-1.1-1.9-10.3-8.7-27.5-20.3l0,0c0-0.4-0.5-0.9-1.6-1.3l0,0c-1.4,1.7-5.8,5.2-13.2,10.8l0,0
	c0,2.1-6.2,6.8-18.7,14.2l0,0C194.9,95.4,194.3,96.9,194,99.1z M222.5,78.4L222.5,78.4h1.6c0.8,0,1.7,2,2.7,6l0,0l-0.6,2.6v0.4
	c1.1,5.8,4.6,8.6,10.4,8.6l0,0l1.1,1.3v0.9c-0.4,0.6-5.1,1.9-14.3,3.9l0,0c-4.8,4.6-7.4,6.9-7.7,6.9l0,0h-1.1
	c-0.7,0-1.1-0.3-1.1-0.9l0,0c0-2.6,0.2-4.7,0.5-6.5l0,0c-0.4-3.2-0.5-7-0.5-11.2l0,0v-1.7l0.5-0.9c-0.7,0-1.1-0.3-1.1-0.9l0,0v-1.3
	C213.2,85.4,216.3,82.9,222.5,78.4z"/>
</svg>
