<?xml version="1.0" encoding="UTF-8"?>
<svg id="Layer_2" data-name="Layer 2" xmlns="http://www.w3.org/2000/svg" viewBox="0 0 865.43 286.89">
  <defs>
    <style>
      .cls-1 {
        fill: #fff;
      }
    </style>
  </defs>
  <g id="Layer_1-2" data-name="Layer 1">
    <path class="cls-1" d="m20.95,38.69c7.6,3.36,14.08,7.85,19.45,13.46.78,24.53-.36,45.52-.75,71.05.4,32.13.25,20.25,16.45,35.9h.75c1.74-3.74,3.24-7.73,4.49-11.97-.48-13.19,1.55-49.99-2.24-61.33h.75c-1.79-4.61-2.39-9.83-2.24-14.96l12.71-8.97c0-.87,5.98-7.11,17.95-18.7,5.26.29,3.42,5.78,2.99,14.21,0,6.36.5,16.58,1.5,30.66-2.22,40.9,2.6,76.88,1.5,111.44-18.82,21.94-36.77,41.39-53.85,58.34-.55.09-4.01.88-4.49.75-12.59-10.59-21.57-20.07-26.93-28.42-2-.75-2.99-2.49-2.99-5.24.7-.75-1.36-42.11.75-41.88-1.2-.8-.64-8.5-.75-9.72.11-1.39,1.15-1.59,2.24-1.5l26.18,21.69c.05,11.42-2.46,17.02,11.22,25.43,13.79-20.88,13.96-17.71,13.46-32.91h-.75c-6.86,3.99-11.59,5.98-14.21,5.98-17.08-12.59-27.8-21.81-32.16-27.67-5.48-52.81-.98-49.98-5.98-87.5,0,0,.75-3.74.75-3.74-2.5,0-3.74-.75-3.74-2.24,1-1.62,1.5-2.87,1.5-3.74C1.22,64.49-.15,61.97.01,58.88c5.23-2.69,11.9-14.27,20.94-20.19Z"/>
    <path class="cls-1" d="m158.01,65.05c5.61,8.1,13.84,17.58,24.68,28.42,6.5,5.2,10.3,9.95,7.48,14.21,1.18.86.65,7.73.75,8.98,7.6,7.22-1.68,10.91-2.99,23.93,5.84,14.9,5.57,18.82,2.99,33.66,0,0,0,22.44,0,22.44-.06,2.65,5.35,1.11,6.73,1.5,5.98.87,8.97,2.12,8.97,3.74-.98,14.49-3.04,24.51-4.49,23.93-.87.5-1.87.75-2.99.75-11.13-.6-26.12,2.04-37.4-3.74-5.49,6.86-11.97,20.82-19.45,41.88-5.19.68-4.48-3.78-7.48-16.45-1.99-6.73-5.49-11.22-10.47-13.46-4.1-1.51-10.04-22.5-20.94-23.93.41-7.61,2.77-11.57.75-16.45,1.89-9.28-1.96-19.39,2.24-23.19-.94-6.02-2.7-7.41,4.49-11.97-4.82-4.25-8.07-16.82-5.98-27.67-2-9.6-2.99-16.08-2.99-19.45,10.15-7.76,43-31.27,53.1-47.12h2.99Zm-20.19,42.63c-.97,4.87-.76,21.72-.75,26.93.17,3.01,6.99,36.79-2.99,36.65l-1.5,2.24c0,1.5,2.24,5.49,6.73,11.97,2.12,8.48,4.86,15.71,8.23,21.69,6.48-5.98,9.72-9.22,9.72-9.72-1.11-6.55-1.26-25.59,0-32.16-1.41,1.63-1.35-30.12-.75-32.91-2.97-4.47-2.16-10.16-2.24-14.96,0-.5.25-.75.75-.75,0-2.12-4.74-4.36-14.21-6.73.13-.67-1.51-2.4-2.99-2.24Z"/>
    <path class="cls-1" d="m329.01,114.91c1.28,15.93,1.6,32.98,1.5,49.36,0,1.87.75,6.86,2.24,14.96-1.19,5.08-.63,14.43-.75,19.45,8.23,8.23,17.7,18.45,28.42,30.66,6.48-4.74,18.2-15.95,35.15-33.65,6.61-3.12,14.09-11.34,22.44-24.68,6.48-5.48,9.72-8.48,9.72-8.98l-2.99-2.99c-36.37,15.22-30.67,42.7-52.35,44.87-12.97-11.47-19.45-18.95-19.45-22.44v-32.16c0-.75.75-1.5,2.24-2.24,1.99.5,2.99,1.5,2.99,2.99h.75c7.48-5.24,15.21-12.22,23.18-20.94.5,0,3.74-4.24,9.72-12.71.75,0,1.74-.5,2.99-1.5,5.78-.75,5.07,4.3,5.98,17.95h1.5c0-1,.25-1.5.75-1.5-2.74-11.36.32-19.96,11.22-29.92-1.5-3.37-13.96-15.08-37.4-35.15,0-.75-.75-1.5-2.24-2.24-1.87,2.87-7.85,9.1-17.95,18.7,0,3.62-8.48,11.84-25.43,24.68-1,1.12-1.75,3.62-2.24,7.48Zm38.89-35.9c4.46-.5,3.76,1.76,5.98,10.47-.06.5-.89,4.85-.75,5.24,1.5,9.97,3.8,7.25,11.78,7.25l1.5,2.24c-.12,3.01-3.67,11.51-17.02,15.93-14.05,18.27-14.63,13.79-12.71-.75-.58-6.2-.8-14.7-.75-22.44,0,0,.75-1.5.75-1.5-5.09-2.91,1.77-7.26,11.22-16.45Z"/>
    <path class="cls-1" d="m489.28,28.23c.97.22,2.49,4.55,4.55,12.99,8.87,18.83,16.24,30.74,22.08,35.72,6.52,2.92,9.29,3.79,9.09,5.85-26.8,26.48-24.33,22.99-22.73,49.36-.64.44-1.82.8-2.6.65-8.68-13.04-7.38-30.51-4.55-48.06-10.72-2.16-17.86-5.19-21.43-9.09,0-.54-1.08-1.62-3.25-3.25h-.65c.35,11.36-2.63,21.79-9.09,29.23,10.06,19.53,39.01,53.75,62.35,59.1,1.58,11.05.05,23.5,0,53.9.65,0,1.3.65,1.95,1.95-7.04,5.19-10.72,7.79-11.04,7.79-25.55,29.33-38.54,47.3-38.97,53.9-4.3,4.38-4.39-5-7.15-19.48-2.27-7.15-11.36-21-27.28-41.57-9.09-8.33-13.64-13.53-13.64-15.59,26.31-20.84,18.41-25.18,27.93-42.21,4.92-.6,5.43,7.12,7.15,24.03-.54,7.62-6.28,33.78,11.69,35.07,3.4,4.97,24.7-.91,22.08-3.9,1.3-15.37,2.6-27.93,3.9-37.67-15.16-8.77-36.37-24.14-63.65-46.11-1.41,0-4.01-1.73-7.79-5.19.43-15.04.65-25.87.65-32.47-.65-10.33.42-11.02,14.29-20.13,0-.86,9.74-9.31,29.23-25.33,10.28-12.56,15.91-19.05,16.89-19.48Z"/>
    <path class="cls-1" d="m689.88,49.64c1.77,16.74,2.37,30.29,2.24,44.87,0,2.99-6.48,11.97-19.44,26.93h-2.24c-15.33-14.83-23.81-25.06-25.43-30.66v-1.5l5.98-41.14v-1.5c-15.21-4.74-25.18-9.22-29.92-13.46.21,1.11.93,4.16.75,5.23-3.06,23.63.96,63.95,2.24,63.57,8.48,10.83,19.75,21.62,25.43,30.66,1.36,7.28-17.86,2.65-26.93,1.5-1,2.74-1.5,6.98-1.5,12.71,3.15,1.2,24.01-5.82,25.43-2.99.5,0,.75-.25.75-.75,26.74.95-12.36,26.74-26.18,36.65,2.98,29.17.49,48.92,2.99,82.27h.75c1.24-1.74,7.48-6.98,18.7-15.71-1.18-18.27-5.71-62.68,5.98-71.05,2.74-1,9.47-7.23,20.2-18.7h1.5c4.24,6.73,10.97,16.21,20.19,28.42l.75,3.74-.75,10.47c3.49,36.52,5.24,55.72,5.24,57.59,2.62,0,6.11,2.74,10.47,8.23,4.98-15.08,8.72-23.56,11.22-25.43-2.24-18.74-2.24-47.69,0-68.06-3.87,0-10.6-7.73-20.19-23.18-4.47-2.26-5.35-4.46-1.5-6.73,0,0,16.45,0,16.45,0,3.65-.85,1.63-8.52,1.5-11.22l-11.22,2.24v-.75c-.69,1.23-10.04.62-11.22.75-.75,0-1.75-1-2.99-2.99v-.75c6.48-7.73,16.45-17.2,29.92-28.42.69-10.71-1.66-36.24-1.5-41.14,0-.75.5-6.73,1.5-17.95.13-3.77-.66-10.11,1.5-13.46h-.75c-13.46,11.84-23.44,18.82-29.92,20.94v.75Z"/>
    <path class="cls-1" d="m223.55,0c1.4,0,4.43.7,9.09,2.1l17.49-2.1h8.39c16.55.93,25.88,1.63,27.98,2.1l4.2-.7h13.29c.46,0,.7.24.7.7l1.4-.7h11.19c.7,0,1.4.7,2.1,2.1v2.8c0,1.52-.24,2.68-.7,3.5.81,0,1.51,17.95,2.1,53.85l-.7,6.29c0,.24.23,3.26.7,9.09,0,3.5-.24,11.66-.7,24.48,0,3.38.23,8.74.7,16.09-.58,20.98-1.05,34.27-1.4,39.87.46,12.94.7,24.83.7,35.67v77.63c0,4.66-2.57,6.99-7.69,6.99-61.08-.93-91.62-2.33-91.62-4.2-1.87-7.93-3.5-36.37-4.9-85.33v-9.09c0-21.33.46-40.45,1.4-57.35-2.8-26.34-4.2-41.26-4.2-44.76V20.98c-1.4-1.51-2.1-2.68-2.1-3.5l3.5-15.39c0-1.05,3.03-1.75,9.09-2.1Zm31.47,13.29v15.39c0,5.94.46,12.01,1.4,18.18-.35,6.99-1.28,10.49-2.8,10.49h-11.19c-3.03,0-7.69.24-13.99.7v23.08c13.52,0,20.28,1.17,20.28,3.5,2.8,33.69,4.2,65.16,4.2,94.42v6.3l.7,8.39h-.7c1.4,4.31,2.1,9.68,2.1,16.09,0,1.4-3.03,2.33-9.09,2.8,0,.47-.24.7-.7.7,13.05,22.73,19.58,36.25,19.58,40.57h.7c0-.7,3.5-6.53,10.49-17.48l14.69-21.68c-9.33-.81-13.99-1.98-13.99-3.5,1.4-6.18,2.1-11.77,2.1-16.79v-3.5c0-6.99-.23-13.29-.7-18.88.93-13.52,2.1-43.36,3.5-89.52,3.26-2.8,9.79-4.2,19.58-4.2v-1.4c0-3.96-.24-10.26-.7-18.88-1.98-.81-7.81-1.75-17.49-2.8-1.87,0-2.8-13.99-2.8-41.96h-13.99l-4.9-1.4c-3.5.93-5.6,1.4-6.29,1.4Z"/>
    <path class="cls-1" d="m766.11,21.12l90.92.7c1.63,0,3.73.24,6.3.7.93-.46,1.63-.7,2.1-.7-.47,71.92-1.4,125.13-2.8,159.64-1.4,34.51-2.1,57.52-2.1,69.07,0,21.45-1.4,32.17-4.2,32.17-6.99-.46-12.13-.7-15.39-.7h-11.89c-27.51,3.26-56.89,4.9-88.12,4.9-1.63-1.86-2.8-4.9-3.5-9.09l-2.1-251.08c.93-2.1,1.86-3.26,2.8-3.5h.7c14.8-1.4,23.89-2.1,27.28-2.1Zm-18.18,16.09c0,2.1,2.33,7.23,6.99,15.39.93,3.73,1.4,8.39,1.4,13.99,0,7.46-.24,15.15-.7,23.08l2.8,50.36c-.47,3.15-.7,5.71-.7,7.69v13.99c-.93,18.53-1.4,28.56-1.4,30.07v22.38l-.7,4.9c10.37,3.85,21.1,15.27,32.17,34.27.46,0,3.5,4.2,9.09,12.59,2.91-3.85,10.14-11.77,21.68-23.78,2.45-2.91,8.04-10.84,16.79-23.78l8.39-7.69c-.47-4.66-.7-8.16-.7-10.49v-2.1c0-8.16.23-14.69.7-19.58-.47-5.25-.7-10.14-.7-14.69.93-17.83,1.4-30.66,1.4-38.47V56.79c0-9.32.46-15.39,1.4-18.18h-1.4c-5.71,8.04-11.95,13.29-18.71,15.74-6.76,2.45-7.29,24.95-1.57,67.49l-2.1,21.68c.46,25.3,1.16,42.55,2.1,51.76v1.4c0,2.8-3.5,9.56-10.49,20.28-2.92,6.18-7.58,12.47-13.99,18.88h-1.4c-1.05-.46-3.85-9.56-8.39-27.28-8.39-10.49-12.59-16.32-12.59-17.48,1.4-7.11,2.1-13.64,2.1-19.58-.93-23.31-1.4-36.83-1.4-40.56,0-27.74.93-52.92,2.8-75.53-18.3-12.12-29.26-18.18-32.87-18.18Z"/>
  </g>
</svg>