<?xml version="1.0" encoding="UTF-8"?>
<svg id="Layer_2" data-name="Layer 2" xmlns="http://www.w3.org/2000/svg" viewBox="0 0 48.28 48.26">
  <defs>
    <style>
      .cls-1 {
        fill: #fff;
      }
    </style>
  </defs>
  <g id="Layer_1-2" data-name="Layer 1">
    <path class="cls-1" d="m24,.35l-4.65.26-4.58,1.1-4.12,2.31-3.42,3.21-3.04,3.53-2.68,3.92L.07,19.24l.4,4.76-.08,4.7,1.58,4.43,2,4.26,2.94,3.7,3.88,2.68,3.93,2.62,4.55,1.36,4.73.5,4.77-.3,4.6-1.35,4.11-2.44,3.18-3.51,3.19-3.39,2.08-4.17,1.67-4.39.69-4.69-.77-4.68-1.53-4.43-1.71-4.44-3.5-3.23-3.32-3.36-4.44-1.63-4.39-1.47-4.62-.41Zm0,3.29l4.49.69,4.15,1.73,3.84,2.29,3.41,2.97,2.32,3.9.98,4.39.42,4.38.36,4.56-1.99,4.1-2.19,3.93-3.35,3-3.81,2.3-4.12,1.84-4.51.04-4.41-.47-4.17-1.48-3.65-2.48-3.07-3.13-2.52-3.62-2.13-4.03-.19-4.56.36-4.52,1.78-4.15,2.55-3.65,2.93-3.37,3.73-2.55,4.41-.91,4.37-1.21Zm-3.19,10.21l-5.29.09-5.24.82-1.55,2.11,2.06,1.78,1.18-.08,4.45-.26,4.4-.17,4.2-.65,4.05,1.18,4.08.9,3.69,1.95,1.23.46,1.97-2.25-.85-2.19-4.34-1.96-4.57-1.34-4.68-.92-4.77.52Zm-.56,7.44l-4.34.09-4.32.63-1.3,1.99,1.71,1.4.95-.07,3.62-.13,3.56-.12,4.93-.5,4.64,1.68,4.51,1.85,1.1.54,1.85-1.97-1.28-1.49-3.48-2.26-3.95-1.25-4.07-.76-4.14.37Zm.56,7.31l-4.17.05-4.17.49-1.18,1.61,1.4,1.09.97-.08,3.52-.09,3.45-.15,3.99-.56,3.72,1.48,3.68,1.42.98.54,1.67-1.26-1.16-1.33-3.84-2.31-4.36-1.12-4.49.21Z"/>
  </g>
</svg>