<?xml version="1.0" encoding="UTF-8"?>
<svg id="Layer_2" data-name="Layer 2" xmlns="http://www.w3.org/2000/svg" viewBox="0 0 48.46 48.44">
  <defs>
    <style>
      .cls-1 {
        fill: #fff;
      }
    </style>
  </defs>
  <g id="Layer_1-2" data-name="Layer 1">
    <path class="cls-1" d="m47.64.23l-2.08-.08-4.51,1.14-4.58.82-4.61.63-4.58.78-4.49,1.32-4.53,1.13-4.64.54-1.29.38-.68,4.35v4.47s.83,4.47.83,4.47l-.57,4.47-.13,4.47.31,4.5-4.08-1.64-4,1.57-2.73,3.04-1.13,3.88,1.18,3.85,2.82,2.84,3.86,1.28,4.17-.75,3.05-3.05.59-4.17-.27-4.47.53-4.47-.32-4.48-.09-4.48.13-4.66,4.89-.58,4.57-1.38,4.79-.22,4.7-.69,4.55-1.5,4.7-.7-.15,4.91-.14,4.92.46,4.96-4.17-1.42-3.93,1.44-2.59,3.04-1.77,3.76,1.27,4.05,3.23,2.53,3.8,1.68,3.78-1.7,3.35-2.44.93-4.12.29-4.3-.15-4.3.26-4.3-.48-4.3.41-4.3.07-4.31-.9-4.29.07-4.1Z"/>
  </g>
</svg>