<?xml version="1.0" encoding="UTF-8"?>
<svg id="Layer_2" data-name="Layer 2" xmlns="http://www.w3.org/2000/svg" viewBox="0 0 54.53 37.9">
  <defs>
    <style>
      .cls-1 {
        fill: #fff;
      }
    </style>
  </defs>
  <g id="Layer_1-2" data-name="Layer 1">
    <path class="cls-1" d="m.19.29h5.59s5.37.76,5.37.76l5.36-.74,5.36.57,5.36.09,5.36-.1h5.36s5.36-.88,5.36-.88l5.36.14,5.72.02-.49,5.66.32,5.3-.09,5.3-.34,5.3.38,5.29.37,5.3-.34,5.46-5.51-.16-5.36.11-5.36-.61-5.36.3-5.36-.03-5.36.09-5.36-.38-5.36.23-5.37-.19-5.65.77-.1-5.58.79-5.29-.64-5.3-.19-5.3.39-5.3.11-5.3L.19.29Zm4.45,32.9l5.54.07,5.68.75,5.69-.74,5.68.57,5.68.09,5.68-.1h5.68s5.45-.83,5.45-.83l-.17-2.22-.34-.34-3.76-3.43-4.32-2.64-4.09-2.97-3.94-3.18-1.13.33-3.64,2.89-2.02-.28-3.64-2.74-1.02.09-4.51,2.4-3.99,3.14-4.18,2.88-4.11,2.98-.88.82.65,2.44ZM9.53,4.98l.08-.33.29,1.13,4.51,2.1,3.79,3.19,4.06,2.79,4.16,2.64,1.62-.03,3.71-3.51,4.28-2.65,4.13-2.87,4.55-2.23.39-.37-5.92-.09-5.93-.34-5.93.38-5.93.37-5.93-.27-5.92.11Zm40.15,20.28l-.04-6.11.75-6.38-.65-6.21-4.73,2.63-4.7,3.03-4.75,3.48,4.8,3.57,5.15,2.55,4.16,3.43Zm-31.61-9.53l-4.42-2.93-4.2-3.74-4.8-2.51-.48,6.23-.09,6.4.25,6.7,5.03-3.29,4.11-4,4.6-2.85Z"/>
  </g>
</svg>