<?xml version="1.0" encoding="UTF-8"?>
<svg id="Layer_2" data-name="Layer 2" xmlns="http://www.w3.org/2000/svg" viewBox="0 0 52.45 40.54">
  <defs>
    <style>
      .cls-1 {
        fill: #fff;
      }
    </style>
  </defs>
  <g id="Layer_1-2" data-name="Layer 1">
    <path class="cls-1" d="m51.16,7.95l-1.98-4.47-4.56-1.8-4.57-.26-4.48-1.18-4.59-.09-4.58.42-4.59-.56-4.53.95-4.62-.24-4.52.76-4.61,1.92L1.25,7.88l-.86,4.04.13,4.14-.52,4.11.04,4.13,1.24,4.02.56,4.03,1.61,4.67,4.76,1.31,4.52.66,4.54.5,4.55.42,4.57.64,4.58-.49,4.57-.33,4.61.1,4.55-.61,3.98-2.88,2.39-3.96,1.09-3.98.29-4.1-.28-4.12.23-4.11-.36-4.1-.89-4.01Zm-13.68,14.12l-3.71,1.63-3.31,2.33-3.34,2.29-3.88,1.34-2.77,1.86-.47-4.49.66-4.57-.68-4.58.67-4.58-.2-4.53,2.77,1.95,3.57,1.86,3.37,2.22,3.74,1.58,3.3,2.36,2.73,1.42-2.45,1.89Z"/>
  </g>
</svg>