<?xml version="1.0" encoding="UTF-8"?>
<svg id="Layer_2" data-name="Layer 2" xmlns="http://www.w3.org/2000/svg" viewBox="0 0 64 28.17">
  <defs>
    <style>
      .cls-1 {
        fill: #fff;
      }
    </style>
  </defs>
  <g id="Layer_1-2" data-name="Layer 1">
    <path class="cls-1" d="m39.25.46l-4.98.62-.53.79-.32,4.16-.23,4.16.32,4.16.18,4.16-.59,4.17.65,4.17.56,1.11,4.36-.66,4.36.14,4.36-.02,4.37.53,4.37-.49,4.09-.47,2.97-3,.39-4.07-.31-4.12-3.16-2.76-3.97-1.11-2.8.48-.8-3.9-2.52-3.34-3.17-2.54-3.52-2.04-4.06-.14Zm-7.4,1.84l-.46-.14-.13.55-.32.08-.32,4.4.23,4.42.09,4.42-.68,4.41.83,3.24-.31,3.21,1.07.4.55-.43.36-6.42.43-4.42-.59-4.42.52-4.45-.14-4.44-.93-.37-.21-.03Zm-2.69,1.53l-.36-.2-.18.56-.32.15-.31,4.02.24,4.03.1,4.03-.67,4.02.96,6.53-.49.04.74.18.28.27.33-.16.68-.33-.46-.67.93-5.86-.13-4.07-.79-4.05.7-4.08-.38-4.06-.37-.75-.51.41Zm-8.04,1.87l-.51.19v4.85s-.46,4.84-.46,4.84l-.37,4.86.72,6.67.61.43,1.02-.4-.2-6.71.34-4.85-.81-4.83v-4.86s-.35-.2-.35-.2Zm2.66.32l-.56.24v4.73s-.44,4.72-.44,4.72l-.35,4.74.69,6.61.66.48,1.08-.45-.24-6.65.35-4.72-.8-4.71v-4.73s-.39-.25-.39-.25Zm-5.3.21l-.45.14v4.69s-.48,4.68-.48,4.68l-.38,4.7.75,6.72.55.37.97-.35-.16-6.75.32-4.69-.82-4.67-.03-4.7-.28-.14Zm7.98.25l-.62.3.02,4.56-.44,4.55-.34,4.56.65,6.57.72.53,1.13-.52-.27-6.6.36-4.55-.79-4.54v-4.56s-.43-.3-.43-.3Zm-10.63.92l-.4.08-.02,4.33-.48,4.32-.39,4.34.55,3.39.41,3.39.32.92.26-.93.75-3.36-.39-3.42-.04-4.31-.2-4.33.35-4.36-.73-.07Zm-2.55,2.44l-.34.03-.12,5.3-.57,5.28.02,3.43.57,3.39.45.27.86-.24-.37-3.47.77-3.39-.94-5.27-.15-5.3-.17-.04Zm-5.13,3.67l-.23-.07-.15,3.51-.6,3.48.05,3.41.6,3.36.34.15.75-.11-.33-3.45.81-3.36-.98-3.46-.18-3.52-.06.06Zm-2.53.24l-.18-.13-.17,3.42-.62,3.39.37,6.59.6.25.1-.3,1.26-6.54-.99-3.4.15-3.46-.53.16Zm5.09.21l-.29-.02-.4,6.5-.06,3.41.04,3.44.71.36.21-.4.89-3.37-.35-3.44-.12-6.53-.64.05Zm-7.6.91l-.13-.18-.49,5.73.3,5.62.32.54.23-.54.53-5.62-.12-5.8-.64.24Zm-2.37,2.2l-.12-.19-.33,3.54.14,3.5.31.52.21-.53.38-3.49.03-3.61-.62.26Z"/>
  </g>
</svg>